<mxfile host="app.diagrams.net" modified="2021-01-31T10:19:39.078Z" agent="5.0 (Windows NT 10.0; WOW64) AppleWebKit/537.36 (KHTML, like Gecko) Chrome/70.0.3538.25 Safari/537.36 Core/1.70.3861.400 QQBrowser/10.7.4313.400" etag="dD1B6zNw1Hftknlwsx5R" version="14.2.7" type="github">
  <diagram id="Mpxhu-K9NyqbmTa5k_vh" name="Page-1">
    <mxGraphModel dx="1067" dy="486" grid="1" gridSize="10" guides="1" tooltips="1" connect="1" arrows="1" fold="1" page="1" pageScale="1" pageWidth="827" pageHeight="1169" math="0" shadow="0">
      <root>
        <mxCell id="0" />
        <mxCell id="1" parent="0" />
        <mxCell id="nAPAW82q1n84y7xJdNR2-4" style="edgeStyle=orthogonalEdgeStyle;rounded=0;orthogonalLoop=1;jettySize=auto;html=1;" edge="1" parent="1" source="nAPAW82q1n84y7xJdNR2-1" target="nAPAW82q1n84y7xJdNR2-2">
          <mxGeometry relative="1" as="geometry" />
        </mxCell>
        <mxCell id="nAPAW82q1n84y7xJdNR2-1" value="ribbo重试" style="rounded=1;whiteSpace=wrap;html=1;" vertex="1" parent="1">
          <mxGeometry x="280" y="40" width="120" height="60" as="geometry" />
        </mxCell>
        <mxCell id="nAPAW82q1n84y7xJdNR2-5" style="edgeStyle=orthogonalEdgeStyle;rounded=0;orthogonalLoop=1;jettySize=auto;html=1;entryX=0.5;entryY=0;entryDx=0;entryDy=0;" edge="1" parent="1" source="nAPAW82q1n84y7xJdNR2-2" target="nAPAW82q1n84y7xJdNR2-3">
          <mxGeometry relative="1" as="geometry" />
        </mxCell>
        <mxCell id="nAPAW82q1n84y7xJdNR2-2" value="&lt;span&gt;spring-cloud-netflix-ribbon-2.1.2.RELEASE.jar&lt;/span&gt;&lt;br&gt;&lt;span&gt;spring.factories&lt;/span&gt;" style="rounded=1;whiteSpace=wrap;html=1;" vertex="1" parent="1">
          <mxGeometry x="220" y="160" width="280" height="60" as="geometry" />
        </mxCell>
        <mxCell id="nAPAW82q1n84y7xJdNR2-7" style="edgeStyle=orthogonalEdgeStyle;rounded=0;orthogonalLoop=1;jettySize=auto;html=1;entryX=0.5;entryY=0;entryDx=0;entryDy=0;" edge="1" parent="1" source="nAPAW82q1n84y7xJdNR2-3" target="nAPAW82q1n84y7xJdNR2-6">
          <mxGeometry relative="1" as="geometry" />
        </mxCell>
        <mxCell id="nAPAW82q1n84y7xJdNR2-3" value="&lt;pre style=&quot;background-color: rgb(255 , 255 , 255) ; font-size: 12pt&quot;&gt;&lt;span style=&quot;color: rgb(0 , 128 , 0) ; font-weight: bold&quot;&gt;RibbonAutoConfiguration&lt;/span&gt;&lt;/pre&gt;" style="rounded=1;whiteSpace=wrap;html=1;" vertex="1" parent="1">
          <mxGeometry x="235" y="280" width="250" height="60" as="geometry" />
        </mxCell>
        <mxCell id="nAPAW82q1n84y7xJdNR2-6" value="&lt;pre style=&quot;background-color: rgb(255 , 255 , 255) ; font-size: 12pt&quot;&gt;&lt;span style=&quot;color: #808000&quot;&gt;@Bean&lt;br&gt;&lt;/span&gt;&lt;span style=&quot;color: #808000&quot;&gt;@ConditionalOnClass&lt;/span&gt;(name = &lt;span style=&quot;color: #008000 ; font-weight: bold&quot;&gt;&quot;org.springframework.retry.support.RetryTemplate&quot;&lt;/span&gt;)&lt;br&gt;&lt;span style=&quot;color: #808000&quot;&gt;@ConditionalOnMissingBean&lt;br&gt;&lt;/span&gt;&lt;span style=&quot;color: #000080 ; font-weight: bold&quot;&gt;public &lt;/span&gt;LoadBalancedRetryFactory loadBalancedRetryPolicyFactory(&lt;br&gt;      &lt;span style=&quot;color: #000080 ; font-weight: bold&quot;&gt;final &lt;/span&gt;SpringClientFactory clientFactory) {&lt;br&gt;   &lt;span style=&quot;color: #000080 ; font-weight: bold&quot;&gt;return new &lt;/span&gt;RibbonLoadBalancedRetryFactory(clientFactory);&lt;br&gt;}&lt;/pre&gt;" style="rounded=1;whiteSpace=wrap;html=1;" vertex="1" parent="1">
          <mxGeometry x="40" y="420" width="640" height="140" as="geometry" />
        </mxCell>
        <mxCell id="nAPAW82q1n84y7xJdNR2-8" value="&lt;pre style=&quot;background-color: rgb(255 , 255 , 255)&quot;&gt;&lt;span style=&quot;color: rgb(0 , 128 , 0) ; font-weight: bold&quot;&gt;&lt;font style=&quot;font-size: 12px&quot;&gt;RetryTemplate类需要存在&lt;/font&gt;&lt;/span&gt;&lt;/pre&gt;&lt;pre style=&quot;background-color: rgb(255 , 255 , 255)&quot;&gt;&lt;span style=&quot;color: rgb(0 , 128 , 0) ; font-weight: bold&quot;&gt;&lt;font size=&quot;3&quot;&gt;需要导入spring-retryTemplate依赖&lt;/font&gt;&lt;/span&gt;&lt;/pre&gt;" style="text;html=1;strokeColor=none;fillColor=none;align=center;verticalAlign=middle;whiteSpace=wrap;rounded=0;" vertex="1" parent="1">
          <mxGeometry x="340" y="350" width="290" height="60" as="geometry" />
        </mxCell>
      </root>
    </mxGraphModel>
  </diagram>
</mxfile>
